<!-- Generated by IcoMoon.io -->
<svg version="1.1" xmlns="http://www.w3.org/2000/svg" width="51" height="32" viewBox="0 0 51 32">
<title>Copy-of-icon-luxury</title>
<path fill="#000" opacity="0.201" d="M32 16c0 8.837-7.163 16-16 16s-16-7.163-16-16c0-8.837 7.163-16 16-16s16 7.163 16 16z"></path>
<path fill="#19b89d" d="M24.784 18.268c1.553 0 2.813 1.283 2.813 2.866s-1.26 2.866-2.814 2.866-2.813-1.283-2.813-2.866c0-1.583 1.259-2.866 2.813-2.866zM42.349 18.268c1.554 0 2.814 1.283 2.814 2.866s-1.26 2.866-2.814 2.866-2.813-1.283-2.813-2.866c0-1.583 1.259-2.866 2.813-2.866zM35.034 9.908c0.185-0.189 0.442-0.307 0.728-0.307s0.543 0.117 0.727 0.307l0 0 2.972 3.027c3.555-0.092 7.76 0.914 11.171 3.002 0.31 0.19 0.499 0.531 0.499 0.899 0 2.405-1.701 4.411-3.941 4.84 0.318-2.958-1.966-5.506-4.842-5.506-2.917 0-5.203 2.611-4.831 5.592h-7.735c0.608-1.235 0.794-1.621 1.070-2.169l0.066-0.13c0.337-0.668 0.845-1.656 2.306-4.52 1.344-0.018 2.776-0.326 4.198-1.122l-2.387-2.432c-0.187-0.191-0.302-0.453-0.302-0.742s0.115-0.55 0.302-0.742l-0 0zM28.89 10.759c0.546-0.16 1.116 0.162 1.274 0.718l0.599 2.122c0.066 0.225 0.104 0.484 0.104 0.752 0 0.459-0.111 0.891-0.309 1.272l0.007-0.015-1.559 3.055c-0.856-1.512-2.448-2.491-4.223-2.491-2.876 0-5.16 2.547-4.842 5.508-1.466-0.278-2.731-1.23-3.422-2.621-0.070-0.138-0.111-0.301-0.111-0.473 0-0.236 0.077-0.454 0.207-0.63l-0.002 0.003 0.764-1.042-1.060-1.036c-0.601-0.588-0.301-1.619 0.512-1.785l5.395-1.098c0.074-0.015 0.116-0.024 0.126-0.025 0.251-0.117 0.856-0.473 0.856-1.205 0-0.587 0.474-1.062 1.053-1.048 0.57 0.013 1.014 0.53 1.005 1.11-0.005 0.467-0.107 0.91-0.287 1.31l0.008-0.021c1.408 0.191 2.677 0.512 3.886 0.957l-0.126-0.041-0.56-1.978c-0.026-0.087-0.041-0.188-0.041-0.291 0-0.472 0.311-0.871 0.739-1.004l0.007-0.002z"></path>
</svg>
