<!-- Generated by IcoMoon.io -->
<svg version="1.1" xmlns="http://www.w3.org/2000/svg" width="51" height="32" viewBox="0 0 51 32">
<title>icon-suvs</title>
<path fill="#000" opacity="0.201" d="M32 16c0 8.837-7.163 16-16 16s-16-7.163-16-16c0-8.837 7.163-16 16-16s16 7.163 16 16z"></path>
<path fill="#26b5c0" d="M24.802 17.886c2.334 0 4.144 2.074 3.81 4.405-0.206 1.378-1.115 2.503-2.344 3.013l-0.026 0.009c-0.426 0.178-0.921 0.281-1.441 0.281-1.103 0-2.098-0.465-2.798-1.211l-0.002-0.002c-0.95-1.008-0.988-2.090-1.010-2.090-0.336-2.339 1.486-4.405 3.81-4.405zM42.402 17.886c2.766 0 4.638 2.854 3.528 5.395-0.61 1.372-1.961 2.311-3.531 2.311-0.197 0-0.391-0.015-0.58-0.043l0.021 0.003c-1.684-0.259-2.996-1.576-3.245-3.24l-0.003-0.021c-0.336-2.332 1.477-4.405 3.81-4.405zM30.37 13.020v1.17c0 0 0 0.001 0 0.001 0 0.57 0.462 1.032 1.032 1.032 0.017 0 0.035-0 0.052-0.001l-0.002 0c0.554-0.026 0.982-0.505 0.982-1.061v-1.141h6.64l10.445 0.573c0.44 0.025 0.805 0.323 0.929 0.726l0.002 0.007c0.216 0.716 0.357 1.182 0.45 1.496h-0.838c-0.555 0-1.033 0.427-1.059 0.982-0.001 0.015-0.001 0.032-0.001 0.050 0 0.57 0.462 1.032 1.032 1.032h1.156c-0.131 1.78-1.256 3.354-2.88 4.040 0.104-3.37-2.604-6.104-5.907-6.104-3.454 0-6.21 2.974-5.886 6.469h-5.828c0.344-3.724-2.802-6.825-6.505-6.437v-2.834h6.187zM22.12 13.020v3.446c-1.932 1.001-3.23 2.986-3.23 5.274 0 0.192 0.009 0.382 0.027 0.57l-0.002-0.024c-1.629-0.101-2.912-1.446-2.914-3.091v-1.308h1.168c0.57 0 1.032-0.462 1.032-1.032s-0.462-1.032-1.032-1.032h-1.169v-2.57l0.002-0.232h6.117zM34.109 6.463c2.12 0 4 1.274 4.787 3.244l0.504 1.263c-0.030-0.002-0.048-0.003-0.066-0.004l0.014 0.001-0.021-0.002-0.027-0.002-0.018-0.002c-0.053-0.003-0.116-0.005-0.179-0.005-0 0-0 0-0 0v0l-0.078-0.001h-0.031l-0.109-0.001h-0.042l-0.261-0.001h-6.414l-1.346-4.491zM23.203 6.463l-0.898 4.493h-5.715l1.176-3.768c0.135-0.423 0.525-0.725 0.985-0.725h4.452zM28.669 6.463l1.346 4.492h-5.606l0.897-4.492h3.362z"></path>
</svg>
