<!-- Generated by IcoMoon.io -->
<svg version="1.1" xmlns="http://www.w3.org/2000/svg" width="51" height="32" viewBox="0 0 51 32">
<title>icon-sedans</title>
<path fill="#000" opacity="0.201" d="M32 16c0 8.837-7.163 16-16 16s-16-7.163-16-16c0-8.837 7.163-16 16-16s16 7.163 16 16z"></path>
<path fill="#ffd473" d="M42.349 19.288c1.554 0 2.814 1.234 2.814 2.756s-1.26 2.756-2.814 2.756-2.813-1.234-2.813-2.756c0-1.522 1.259-2.756 2.813-2.756zM24.783 19.288c1.554 0 2.814 1.234 2.814 2.756s-1.26 2.756-2.814 2.756-2.813-1.234-2.813-2.756c0-1.522 1.259-2.756 2.813-2.756zM30.342 15.41v1.143c0 0.573 0.488 1.034 1.078 1.007 0.548-0.031 0.98-0.482 0.98-1.035 0-0.001 0-0.001 0-0.002v0-1.114h6.605l10.786 1.050c0.765 0.074 1.341 0.705 1.341 1.451 0 2.312-1.701 4.242-3.941 4.655 0.318-2.846-1.966-5.296-4.842-5.296-2.917 0-5.203 2.512-4.831 5.378h-7.903c0.373-2.87-1.918-5.378-4.831-5.378-2.876 0-5.16 2.45-4.842 5.296-1.712-0.318-3.133-1.53-3.688-3.145h0.914c0.585 0 1.056-0.478 1.028-1.058-0.026-0.542-0.503-0.96-1.058-0.96h-1.138v-0.201c0-1.019 0.853-1.794 1.845-1.794h12.496zM34.072 8.8c2.116 0 3.992 1.245 4.778 3.17l0.581 1.423h-7.294l-1.406-4.594h3.342zM28.58 8.8l1.406 4.593h-8.782l2.686-2.923c0.953-1.028 2.311-1.67 3.819-1.67 0.002 0 0.005 0 0.007 0h0.865z"></path>
</svg>
