<!-- Generated by IcoMoon.io -->
<svg version="1.1" xmlns="http://www.w3.org/2000/svg" width="32" height="32" viewBox="0 0 32 32">
<title>Vector2</title>
<path fill="none" stroke-linejoin="miter" stroke-linecap="butt" stroke-miterlimit="10" stroke-width="2.1818" stroke="#000" d="M30.502 25.207c0 0.524-0.116 1.062-0.364 1.585s-0.567 1.018-0.989 1.484c-0.713 0.785-1.498 1.353-2.385 1.716-0.873 0.364-1.818 0.553-2.836 0.553-1.484 0-3.069-0.349-4.742-1.062s-3.345-1.673-5.004-2.88c-1.673-1.222-3.258-2.575-4.771-4.073-1.498-1.513-2.851-3.098-4.058-4.756-1.193-1.658-2.153-3.316-2.851-4.96-0.698-1.658-1.047-3.244-1.047-4.756 0-0.989 0.175-1.935 0.524-2.807 0.349-0.887 0.902-1.702 1.673-2.429 0.931-0.916 1.949-1.367 3.025-1.367 0.407 0 0.815 0.087 1.178 0.262 0.378 0.175 0.713 0.436 0.975 0.815l3.375 4.756c0.262 0.364 0.451 0.698 0.582 1.018 0.131 0.305 0.204 0.611 0.204 0.887 0 0.349-0.102 0.698-0.305 1.033-0.189 0.335-0.465 0.684-0.815 1.033l-1.105 1.149c-0.16 0.16-0.233 0.349-0.233 0.582 0 0.116 0.015 0.218 0.044 0.335 0.044 0.116 0.087 0.204 0.116 0.291 0.262 0.48 0.713 1.105 1.353 1.862 0.655 0.756 1.353 1.527 2.109 2.298 0.785 0.771 1.542 1.484 2.313 2.138 0.756 0.64 1.382 1.076 1.876 1.338 0.073 0.029 0.16 0.073 0.262 0.116 0.116 0.044 0.233 0.058 0.364 0.058 0.247 0 0.436-0.087 0.596-0.247l1.105-1.091c0.364-0.364 0.713-0.64 1.047-0.815 0.335-0.204 0.669-0.305 1.033-0.305 0.276 0 0.567 0.058 0.887 0.189s0.655 0.32 1.018 0.567l4.815 3.418c0.378 0.262 0.64 0.567 0.8 0.931 0.145 0.364 0.233 0.727 0.233 1.135z"></path>
</svg>
