<svg aria-hidden="true" style="position: absolute; width: 0; height: 0; overflow: hidden;" version="1.1" xmlns="http://www.w3.org/2000/svg" xmlns:xlink="http://www.w3.org/1999/xlink">
<defs>
<symbol id="icon-Copy-of-icon-luxury" viewBox="0 0 51 32">
<path fill="#000" style="fill: var(--color1, #000)" opacity="0.201" d="M32 16c0 8.837-7.163 16-16 16s-16-7.163-16-16c0-8.837 7.163-16 16-16s16 7.163 16 16z"></path>
<path fill="#19b89d" style="fill: var(--color2, #19b89d)" d="M24.784 18.268c1.553 0 2.813 1.283 2.813 2.866s-1.26 2.866-2.814 2.866-2.813-1.283-2.813-2.866c0-1.583 1.259-2.866 2.813-2.866zM42.349 18.268c1.554 0 2.814 1.283 2.814 2.866s-1.26 2.866-2.814 2.866-2.813-1.283-2.813-2.866c0-1.583 1.259-2.866 2.813-2.866zM35.034 9.908c0.185-0.189 0.442-0.307 0.728-0.307s0.543 0.117 0.727 0.307l0 0 2.972 3.027c3.555-0.092 7.76 0.914 11.171 3.002 0.31 0.19 0.499 0.531 0.499 0.899 0 2.405-1.701 4.411-3.941 4.84 0.318-2.958-1.966-5.506-4.842-5.506-2.917 0-5.203 2.611-4.831 5.592h-7.735c0.608-1.235 0.794-1.621 1.070-2.169l0.066-0.13c0.337-0.668 0.845-1.656 2.306-4.52 1.344-0.018 2.776-0.326 4.198-1.122l-2.387-2.432c-0.187-0.191-0.302-0.453-0.302-0.742s0.115-0.55 0.302-0.742l-0 0zM28.89 10.759c0.546-0.16 1.116 0.162 1.274 0.718l0.599 2.122c0.066 0.225 0.104 0.484 0.104 0.752 0 0.459-0.111 0.891-0.309 1.272l0.007-0.015-1.559 3.055c-0.856-1.512-2.448-2.491-4.223-2.491-2.876 0-5.16 2.547-4.842 5.508-1.466-0.278-2.731-1.23-3.422-2.621-0.070-0.138-0.111-0.301-0.111-0.473 0-0.236 0.077-0.454 0.207-0.63l-0.002 0.003 0.764-1.042-1.060-1.036c-0.601-0.588-0.301-1.619 0.512-1.785l5.395-1.098c0.074-0.015 0.116-0.024 0.126-0.025 0.251-0.117 0.856-0.473 0.856-1.205 0-0.587 0.474-1.062 1.053-1.048 0.57 0.013 1.014 0.53 1.005 1.11-0.005 0.467-0.107 0.91-0.287 1.31l0.008-0.021c1.408 0.191 2.677 0.512 3.886 0.957l-0.126-0.041-0.56-1.978c-0.026-0.087-0.041-0.188-0.041-0.291 0-0.472 0.311-0.871 0.739-1.004l0.007-0.002z"></path>
</symbol>
<symbol id="icon-icon-sedans" viewBox="0 0 51 32">
<path fill="#000" style="fill: var(--color1, #000)" opacity="0.201" d="M32 16c0 8.837-7.163 16-16 16s-16-7.163-16-16c0-8.837 7.163-16 16-16s16 7.163 16 16z"></path>
<path fill="#ffd473" style="fill: var(--color3, #ffd473)" d="M42.349 19.288c1.554 0 2.814 1.234 2.814 2.756s-1.26 2.756-2.814 2.756-2.813-1.234-2.813-2.756c0-1.522 1.259-2.756 2.813-2.756zM24.783 19.288c1.554 0 2.814 1.234 2.814 2.756s-1.26 2.756-2.814 2.756-2.813-1.234-2.813-2.756c0-1.522 1.259-2.756 2.813-2.756zM30.342 15.41v1.143c0 0.573 0.488 1.034 1.078 1.007 0.548-0.031 0.98-0.482 0.98-1.035 0-0.001 0-0.001 0-0.002v0-1.114h6.605l10.786 1.050c0.765 0.074 1.341 0.705 1.341 1.451 0 2.312-1.701 4.242-3.941 4.655 0.318-2.846-1.966-5.296-4.842-5.296-2.917 0-5.203 2.512-4.831 5.378h-7.903c0.373-2.87-1.918-5.378-4.831-5.378-2.876 0-5.16 2.45-4.842 5.296-1.712-0.318-3.133-1.53-3.688-3.145h0.914c0.585 0 1.056-0.478 1.028-1.058-0.026-0.542-0.503-0.96-1.058-0.96h-1.138v-0.201c0-1.019 0.853-1.794 1.845-1.794h12.496zM34.072 8.8c2.116 0 3.992 1.245 4.778 3.17l0.581 1.423h-7.294l-1.406-4.594h3.342zM28.58 8.8l1.406 4.593h-8.782l2.686-2.923c0.953-1.028 2.311-1.67 3.819-1.67 0.002 0 0.005 0 0.007 0h0.865z"></path>
</symbol>
<symbol id="icon-icon-suvs" viewBox="0 0 51 32">
<path fill="#000" style="fill: var(--color1, #000)" opacity="0.201" d="M32 16c0 8.837-7.163 16-16 16s-16-7.163-16-16c0-8.837 7.163-16 16-16s16 7.163 16 16z"></path>
<path fill="#26b5c0" style="fill: var(--color4, #26b5c0)" d="M24.802 17.886c2.334 0 4.144 2.074 3.81 4.405-0.206 1.378-1.115 2.503-2.344 3.013l-0.026 0.009c-0.426 0.178-0.921 0.281-1.441 0.281-1.103 0-2.098-0.465-2.798-1.211l-0.002-0.002c-0.95-1.008-0.988-2.090-1.010-2.090-0.336-2.339 1.486-4.405 3.81-4.405zM42.402 17.886c2.766 0 4.638 2.854 3.528 5.395-0.61 1.372-1.961 2.311-3.531 2.311-0.197 0-0.391-0.015-0.58-0.043l0.021 0.003c-1.684-0.259-2.996-1.576-3.245-3.24l-0.003-0.021c-0.336-2.332 1.477-4.405 3.81-4.405zM30.37 13.020v1.17c0 0 0 0.001 0 0.001 0 0.57 0.462 1.032 1.032 1.032 0.017 0 0.035-0 0.052-0.001l-0.002 0c0.554-0.026 0.982-0.505 0.982-1.061v-1.141h6.64l10.445 0.573c0.44 0.025 0.805 0.323 0.929 0.726l0.002 0.007c0.216 0.716 0.357 1.182 0.45 1.496h-0.838c-0.555 0-1.033 0.427-1.059 0.982-0.001 0.015-0.001 0.032-0.001 0.050 0 0.57 0.462 1.032 1.032 1.032h1.156c-0.131 1.78-1.256 3.354-2.88 4.040 0.104-3.37-2.604-6.104-5.907-6.104-3.454 0-6.21 2.974-5.886 6.469h-5.828c0.344-3.724-2.802-6.825-6.505-6.437v-2.834h6.187zM22.12 13.020v3.446c-1.932 1.001-3.23 2.986-3.23 5.274 0 0.192 0.009 0.382 0.027 0.57l-0.002-0.024c-1.629-0.101-2.912-1.446-2.914-3.091v-1.308h1.168c0.57 0 1.032-0.462 1.032-1.032s-0.462-1.032-1.032-1.032h-1.169v-2.57l0.002-0.232h6.117zM34.109 6.463c2.12 0 4 1.274 4.787 3.244l0.504 1.263c-0.030-0.002-0.048-0.003-0.066-0.004l0.014 0.001-0.021-0.002-0.027-0.002-0.018-0.002c-0.053-0.003-0.116-0.005-0.179-0.005-0 0-0 0-0 0v0l-0.078-0.001h-0.031l-0.109-0.001h-0.042l-0.261-0.001h-6.414l-1.346-4.491zM23.203 6.463l-0.898 4.493h-5.715l1.176-3.768c0.135-0.423 0.525-0.725 0.985-0.725h4.452zM28.669 6.463l1.346 4.492h-5.606l0.897-4.492h3.362z"></path>
</symbol>
<symbol id="icon-chevron-small-left" viewBox="0 0 20 20">
<path d="M12.141 13.418c0.268 0.271 0.268 0.709 0 0.978s-0.701 0.272-0.969 0l-3.83-3.908c-0.268-0.27-0.268-0.707 0-0.979l3.83-3.908c0.267-0.27 0.701-0.27 0.969 0s0.268 0.709 0 0.978l-3.141 3.421 3.141 3.418z"></path>
</symbol>
<symbol id="icon-chevron-small-right" viewBox="0 0 20 20">
<path d="M11 10l-3.141-3.42c-0.268-0.27-0.268-0.707 0-0.978 0.268-0.27 0.701-0.27 0.969 0l3.83 3.908c0.268 0.271 0.268 0.709 0 0.979l-3.83 3.908c-0.267 0.272-0.701 0.27-0.969 0s-0.268-0.707 0-0.978l3.141-3.419z"></path>
</symbol>
<symbol id="icon-aircraft-take-off" viewBox="0 0 20 20">
<path d="M19.87 6.453c0.119 0.257 0.127 1.29-4.884 3.642l-4.913 2.306c-1.71 0.803-4.191 1.859-5.285 2.151-0.766 0.204-1.497-0.316-1.497-0.316s-2.206-1.975-2.792-2.419c-0.585-0.444-0.535-0.67 0.215-0.91 0.467-0.149 3.13 0.493 4.265 0.78 1.339-0.8 2.562-1.486 3.141-1.798-1.396-1.033-4.008-2.962-4.841-3.55-0.799-0.565 0.010-0.768 0.010-0.768 0.368-0.099 1.162-0.228 1.562-0.144 2.721 0.569 7.263 2.071 7.611 2.186 0.832-0.436 2.128-1.092 2.922-1.465 2.075-0.974 4.327-0.037 4.486 0.305z"></path>
</symbol>
<symbol id="icon-chat" viewBox="0 0 20 20">
<path d="M5.8 12.2v-6.2h-3.8c-1.1 0-2 0.9-2 2v6c0 1.1 0.9 2 2 2h1v3l3-3h5c1.1 0 2-0.9 2-2v-1.82c-0.064 0.014-0.132 0.021-0.2 0.021l-7-0.001zM18 1h-9c-1.1 0-2 0.9-2 2v8h7l3 3v-3h1c1.1 0 2-0.899 2-2v-6c0-1.1-0.9-2-2-2z"></path>
</symbol>
<symbol id="icon-check" viewBox="0 0 20 20">
<path d="M8.294 16.998c-0.435 0-0.847-0.203-1.111-0.553l-3.573-4.721c-0.465-0.613-0.344-1.486 0.27-1.951 0.615-0.467 1.488-0.344 1.953 0.27l2.351 3.104 5.911-9.492c0.407-0.652 1.267-0.852 1.921-0.445s0.854 1.266 0.446 1.92l-6.984 11.21c-0.242 0.391-0.661 0.635-1.12 0.656-0.022 0.002-0.042 0.002-0.064 0.002z"></path>
</symbol>
<symbol id="icon-key" viewBox="0 0 20 20">
<path d="M17.691 4.725c-0.503-2.977-3.22-4.967-6.069-4.441s-5.256 2.816-4.753 5.795c0.107 0.641 0.408 1.644 0.763 2.365l-5.175 7.723c-0.191 0.285-0.299 0.799-0.242 1.141l0.333 1.971c0.058 0.342 0.372 0.572 0.7 0.514l1.516-0.281c0.328-0.059 0.744-0.348 0.924-0.639l2.047-3.311 0.018-0.022 1.386-0.256 2.39-3.879c0.785 0.139 1.912 0.092 2.578-0.031 2.848-0.526 4.087-3.67 3.584-6.649zM15.166 6.252c-0.784 1.17-1.584 0.346-2.703-0.475-1.119-0.818-2.135-1.322-1.352-2.492s2.326-1.455 3.447-0.635c1.12 0.819 1.391 2.432 0.608 3.602z"></path>
</symbol>
<symbol id="icon-star" viewBox="0 0 20 20">
<path d="M10 1.3l2.388 6.722h6.412l-5.232 3.948 1.871 6.928-5.439-4.154-5.438 4.154 1.87-6.928-5.233-3.948h6.412l2.389-6.722z"></path>
</symbol>
<symbol id="icon-home3" viewBox="0 0 32 32">
<path d="M32 19l-6-6v-9h-4v5l-6-6-16 16v1h4v10h10v-6h4v6h10v-10h4z"></path>
</symbol>
<symbol id="icon-book" viewBox="0 0 32 32">
<path d="M28 4v26h-21c-1.657 0-3-1.343-3-3s1.343-3 3-3h19v-24h-20c-2.2 0-4 1.8-4 4v24c0 2.2 1.8 4 4 4h24v-28h-2z"></path>
<path d="M7.002 26v0c-0.001 0-0.001 0-0.002 0-0.552 0-1 0.448-1 1s0.448 1 1 1c0.001 0 0.001-0 0.002-0v0h18.997v-2h-18.997z"></path>
</symbol>
<symbol id="icon-map2" viewBox="0 0 32 32">
<path d="M21 6l-10-4-11 4v24l11-4 10 4 11-4v-24l-11 4zM12 4.554l8 3.2v19.692l-8-3.2v-19.692zM2 7.401l8-2.909v19.744l-8 2.909v-19.744zM30 24.599l-8 2.909v-19.744l8-2.909v19.744z"></path>
</symbol>
<symbol id="icon-bell" viewBox="0 0 32 32">
<path d="M32.047 25c0-9-8-7-8-14 0-0.58-0.056-1.076-0.158-1.498-0.526-3.532-2.88-6.366-5.93-7.23 0.027-0.123 0.041-0.251 0.041-0.382 0-1.040-0.9-1.891-2-1.891s-2 0.851-2 1.891c0 0.131 0.014 0.258 0.041 0.382-3.421 0.969-5.966 4.416-6.039 8.545-0.001 0.060-0.002 0.121-0.002 0.183 0 7-8 5-8 14 0 2.382 5.331 4.375 12.468 4.878 0.673 1.263 2.002 2.122 3.532 2.122s2.86-0.86 3.532-2.122c7.137-0.503 12.468-2.495 12.468-4.878 0-0.007-0.001-0.014-0.001-0.021l0.048 0.021zM25.82 26.691c-1.695 0.452-3.692 0.777-5.837 0.958-0.178-2.044-1.893-3.648-3.984-3.648s-3.805 1.604-3.984 3.648c-2.144-0.18-4.142-0.506-5.837-0.958-2.332-0.622-3.447-1.318-3.855-1.691 0.408-0.372 1.523-1.068 3.855-1.691 2.712-0.724 6.199-1.122 9.82-1.122s7.109 0.398 9.82 1.122c2.332 0.622 3.447 1.318 3.855 1.691-0.408 0.372-1.523 1.068-3.855 1.691z"></path>
</symbol>
<symbol id="icon-user" viewBox="0 0 32 32">
<path d="M18 22.082v-1.649c2.203-1.241 4-4.337 4-7.432 0-4.971 0-9-6-9s-6 4.029-6 9c0 3.096 1.797 6.191 4 7.432v1.649c-6.784 0.555-12 3.888-12 7.918h28c0-4.030-5.216-7.364-12-7.918z"></path>
</symbol>
<symbol id="icon-search" viewBox="0 0 32 32">
<path d="M31.008 27.231l-7.58-6.447c-0.784-0.705-1.622-1.029-2.299-0.998 1.789-2.096 2.87-4.815 2.87-7.787 0-6.627-5.373-12-12-12s-12 5.373-12 12 5.373 12 12 12c2.972 0 5.691-1.081 7.787-2.87-0.031 0.677 0.293 1.515 0.998 2.299l6.447 7.58c1.104 1.226 2.907 1.33 4.007 0.23s0.997-2.903-0.23-4.007zM12 20c-4.418 0-8-3.582-8-8s3.582-8 8-8 8 3.582 8 8-3.582 8-8 8z"></path>
</symbol>
<symbol id="icon-lock" viewBox="0 0 32 32">
<path d="M18.5 14h-0.5v-6c0-3.308-2.692-6-6-6h-4c-3.308 0-6 2.692-6 6v6h-0.5c-0.825 0-1.5 0.675-1.5 1.5v15c0 0.825 0.675 1.5 1.5 1.5h17c0.825 0 1.5-0.675 1.5-1.5v-15c0-0.825-0.675-1.5-1.5-1.5zM6 8c0-1.103 0.897-2 2-2h4c1.103 0 2 0.897 2 2v6h-8v-6z"></path>
</symbol>
<symbol id="icon-truck" viewBox="0 0 32 32">
<path d="M32 18l-4-8h-6v-4c0-1.1-0.9-2-2-2h-18c-1.1 0-2 0.9-2 2v16l2 2h2.536c-0.341 0.588-0.536 1.271-0.536 2 0 2.209 1.791 4 4 4s4-1.791 4-4c0-0.729-0.196-1.412-0.536-2h11.073c-0.341 0.588-0.537 1.271-0.537 2 0 2.209 1.791 4 4 4s4-1.791 4-4c0-0.729-0.196-1.412-0.537-2h2.537v-6zM22 18v-6h4.146l3 6h-7.146z"></path>
</symbol>
<symbol id="icon-menu" viewBox="0 0 32 32">
<path d="M2 6h28v6h-28zM2 14h28v6h-28zM2 22h28v6h-28z"></path>
</symbol>
<symbol id="icon-sphere" viewBox="0 0 32 32">
<path d="M15 2c-8.284 0-15 6.716-15 15s6.716 15 15 15c8.284 0 15-6.716 15-15s-6.716-15-15-15zM23.487 22c0.268-1.264 0.437-2.606 0.492-4h3.983c-0.104 1.381-0.426 2.722-0.959 4h-3.516zM6.513 12c-0.268 1.264-0.437 2.606-0.492 4h-3.983c0.104-1.381 0.426-2.722 0.959-4h3.516zM21.439 12c0.3 1.28 0.481 2.62 0.54 4h-5.979v-4h5.439zM16 10v-5.854c0.456 0.133 0.908 0.355 1.351 0.668 0.831 0.586 1.625 1.488 2.298 2.609 0.465 0.775 0.867 1.638 1.203 2.578h-4.852zM10.351 7.422c0.673-1.121 1.467-2.023 2.298-2.609 0.443-0.313 0.895-0.535 1.351-0.668v5.854h-4.852c0.336-0.94 0.738-1.803 1.203-2.578zM14 12v4h-5.979c0.059-1.38 0.24-2.72 0.54-4h5.439zM2.997 22c-0.533-1.278-0.854-2.619-0.959-4h3.983c0.055 1.394 0.224 2.736 0.492 4h-3.516zM8.021 18h5.979v4h-5.439c-0.3-1.28-0.481-2.62-0.54-4zM14 24v5.854c-0.456-0.133-0.908-0.355-1.351-0.668-0.831-0.586-1.625-1.488-2.298-2.609-0.465-0.775-0.867-1.638-1.203-2.578h4.852zM19.649 26.578c-0.673 1.121-1.467 2.023-2.298 2.609-0.443 0.312-0.895 0.535-1.351 0.668v-5.854h4.852c-0.336 0.94-0.738 1.802-1.203 2.578zM16 22v-4h5.979c-0.059 1.38-0.24 2.72-0.54 4h-5.439zM23.98 16c-0.055-1.394-0.224-2.736-0.492-4h3.516c0.533 1.278 0.855 2.619 0.959 4h-3.983zM25.958 10h-2.997c-0.582-1.836-1.387-3.447-2.354-4.732 1.329 0.636 2.533 1.488 3.585 2.54 0.671 0.671 1.261 1.404 1.766 2.192zM5.808 7.808c1.052-1.052 2.256-1.904 3.585-2.54-0.967 1.285-1.771 2.896-2.354 4.732h-2.997c0.504-0.788 1.094-1.521 1.766-2.192zM4.042 24h2.997c0.583 1.836 1.387 3.447 2.354 4.732-1.329-0.636-2.533-1.488-3.585-2.54-0.671-0.671-1.261-1.404-1.766-2.192zM24.192 26.192c-1.052 1.052-2.256 1.904-3.585 2.54 0.967-1.285 1.771-2.896 2.354-4.732h2.997c-0.504 0.788-1.094 1.521-1.766 2.192z"></path>
</symbol>
<symbol id="icon-checkmark2" viewBox="0 0 32 32">
<path d="M12.42 28.678l-12.433-12.238 6.168-6.071 6.265 6.167 13.426-13.214 6.168 6.071-19.594 19.285zM3.372 16.441l9.048 8.905 16.208-15.953-2.782-2.739-13.426 13.214-6.265-6.167-2.782 2.739z"></path>
</symbol>
</defs>
</svg>
